<?xml version="1.0" standalone="no"?>
<!DOCTYPE svg PUBLIC "-//W3C//DTD SVG 20010904//EN"
 "http://www.w3.org/TR/2001/REC-SVG-20010904/DTD/svg10.dtd">
<svg version="1.0" xmlns="http://www.w3.org/2000/svg"
 width="512.000000pt" height="512.000000pt" viewBox="0 0 512.000000 512.000000"
 preserveAspectRatio="xMidYMid meet">
<metadata>
Created by potrace 1.14, written by Peter Selinger 2001-2017
</metadata>
<g transform="translate(0.000000,512.000000) scale(0.100000,-0.100000)"
fill="#000000" stroke="none">
<path d="M1926 4925 c-42 -15 -98 -63 -90 -77 3 -4 0 -8 -5 -8 -6 0 -10 -3 -9
-7 1 -8 -3 -21 -36 -103 -17 -42 -29 -73 -30 -80 -3 -10 -40 -106 -54 -140 -8
-19 -16 -40 -17 -47 -4 -17 -95 -262 -111 -300 -8 -17 -14 -33 -14 -36 0 -3
-5 -18 -12 -34 -7 -15 -13 -32 -13 -38 -1 -5 -6 -21 -12 -35 -33 -81 -51 -139
-46 -144 4 -3 1 -6 -5 -6 -7 0 -12 -8 -12 -18 0 -10 -3 -22 -7 -26 -5 -4 -8
-11 -9 -14 0 -4 -4 -15 -8 -24 -4 -9 -8 -22 -10 -30 -1 -7 -4 -17 -7 -23 -4
-5 -12 -28 -19 -50 -7 -22 -17 -46 -23 -52 -5 -7 -6 -13 -2 -13 4 0 3 -6 -2
-12 -11 -14 -27 -68 -25 -80 1 -5 -3 -8 -9 -8 -5 0 -8 -4 -5 -8 3 -5 -2 -22
-10 -38 -9 -16 -18 -40 -20 -53 -3 -14 -8 -29 -12 -35 -4 -6 -7 -14 -8 -18 -1
-5 -3 -10 -4 -13 -1 -3 -3 -8 -4 -12 -1 -5 -15 -42 -31 -83 -16 -41 -30 -82
-31 -90 -2 -8 -7 -23 -12 -35 -12 -24 -45 -110 -42 -110 1 0 -4 -13 -10 -30
-7 -16 -13 -34 -14 -40 -2 -5 -6 -18 -10 -27 -4 -9 -9 -22 -10 -30 -2 -7 -7
-24 -13 -38 -5 -14 -28 -77 -49 -140 -21 -63 -43 -118 -49 -122 -5 -4 -7 -8
-3 -8 4 0 1 -17 -6 -37 -24 -73 -8 -141 48 -204 33 -36 66 -50 129 -53 58 -3
117 21 144 60 20 29 62 114 60 124 0 3 6 16 13 30 8 14 15 30 16 35 1 6 9 26
18 46 8 20 12 39 9 43 -4 3 -1 6 5 6 7 0 11 3 10 8 -1 6 7 29 29 82 3 8 8 24
10 34 2 11 8 25 13 31 5 7 7 15 3 18 -3 4 -2 7 4 7 5 0 10 6 11 13 2 22 14 59
33 102 5 11 20 54 34 95 15 41 29 82 32 90 4 8 7 17 7 20 1 3 5 11 9 18 5 6 6
12 2 12 -3 0 0 10 7 23 7 12 13 27 14 32 1 6 7 26 15 45 7 19 12 38 11 43 -1
4 3 7 9 7 5 0 8 4 5 8 -3 5 1 20 9 35 7 14 11 28 7 31 -3 3 -1 6 5 6 5 0 10 6
10 13 0 6 33 102 73 212 40 110 92 254 116 320 23 66 53 150 67 187 14 36 23
69 20 72 -4 3 -2 6 4 6 6 0 14 12 17 28 10 40 88 255 97 266 5 5 32 4 66 -2
32 -6 74 -14 93 -17 19 -3 42 -8 50 -10 8 -2 31 -7 50 -10 19 -3 42 -8 50 -10
8 -2 30 -7 48 -10 18 -3 64 -12 102 -20 38 -8 84 -17 102 -20 18 -4 123 -24
233 -46 110 -22 211 -43 225 -45 32 -6 68 -13 100 -20 14 -3 36 -7 50 -9 22
-4 81 -16 150 -31 14 -3 32 -6 40 -8 8 -1 31 -5 50 -9 19 -4 46 -9 60 -12 14
-2 57 -12 95 -20 39 -9 81 -17 95 -19 14 -1 36 -6 50 -9 14 -4 39 -9 55 -11
17 -3 60 -12 98 -19 37 -8 67 -12 67 -9 0 2 7 -1 15 -8 8 -7 15 -10 15 -7 0 3
19 0 43 -5 23 -6 53 -12 67 -14 14 -2 48 -8 75 -14 28 -6 59 -12 70 -15 11 -2
20 -4 20 -5 0 -1 14 -3 30 -4 17 -1 36 -5 42 -9 5 -3 28 -9 49 -12 43 -6 79
-13 79 -15 0 -1 9 -3 20 -4 46 -6 85 -18 85 -27 0 -5 -6 -26 -14 -46 -11 -31
-36 -112 -41 -133 -4 -18 -159 -487 -164 -495 -3 -5 -7 -16 -8 -22 -4 -19 -9
-36 -15 -53 -7 -18 -38 -109 -44 -130 -3 -8 -5 -16 -5 -18 1 -1 -6 -19 -15
-40 -8 -20 -17 -44 -19 -53 -4 -20 -54 -169 -65 -194 -8 -19 -21 -59 -26 -80
-1 -5 -9 -27 -18 -48 -9 -20 -13 -37 -10 -37 4 0 1 -7 -6 -15 -6 -8 -9 -19 -5
-25 3 -5 2 -10 -2 -10 -9 0 -69 -169 -65 -182 1 -5 -2 -8 -7 -8 -5 0 -12 -15
-15 -34 -4 -19 -13 -47 -21 -63 -8 -16 -16 -38 -18 -49 -2 -10 -8 -29 -15 -41
-7 -12 -13 -30 -15 -40 -4 -16 -14 -46 -34 -93 -3 -8 -7 -19 -9 -25 -3 -15
-53 -147 -64 -170 -5 -11 -18 -47 -30 -80 -11 -33 -25 -69 -30 -80 -33 -73
-49 -118 -45 -125 3 -5 0 -10 -5 -12 -6 -2 -12 -10 -14 -18 -1 -8 -7 -25 -14
-36 -6 -12 -8 -24 -5 -28 3 -3 1 -6 -5 -6 -7 0 -12 -9 -12 -20 0 -11 -4 -20
-10 -20 -5 0 -10 -7 -10 -14 0 -23 -126 -268 -175 -342 -25 -37 -45 -71 -45
-75 0 -5 -4 -9 -10 -9 -5 0 -10 -5 -10 -11 0 -6 -6 -16 -12 -24 -7 -7 -22 -26
-33 -41 -22 -31 -154 -167 -195 -199 -73 -59 -221 -133 -302 -151 -5 -1 -9 -2
-10 -4 -12 -9 -149 -26 -198 -23 -66 3 -98 11 -166 42 -135 63 -250 237 -278
421 -3 19 -8 45 -10 57 -6 28 -19 195 -20 245 -1 36 -3 39 -56 60 -30 13 -58
22 -62 20 -5 -1 -8 2 -8 7 0 5 -15 13 -32 16 -18 4 -37 11 -43 15 -5 4 -37 17
-69 29 -33 12 -64 25 -70 29 -6 4 -13 7 -16 8 -3 0 -14 4 -25 9 -11 4 -54 21
-95 37 -41 16 -79 32 -85 36 -5 4 -18 8 -28 9 -10 2 -28 9 -40 15 -12 7 -25
11 -29 10 -5 -1 -8 3 -8 8 0 5 -3 9 -7 8 -5 0 -16 2 -25 5 -38 15 -53 20 -58
22 -3 2 -15 6 -27 10 -13 4 -23 12 -23 17 0 5 -4 7 -9 4 -5 -3 -31 4 -57 16
-27 12 -51 23 -54 23 -3 1 -18 7 -33 13 -15 7 -39 15 -52 18 -14 3 -25 9 -25
13 0 4 -10 7 -22 8 -11 1 -24 7 -28 13 -4 7 -9 10 -11 9 -3 -3 -274 103 -374
145 -30 13 -82 34 -142 56 -18 7 -33 17 -33 22 0 5 -4 7 -10 3 -5 -3 -17 -1
-27 4 -10 5 -43 19 -73 31 -30 11 -65 25 -77 31 -41 17 -78 32 -103 41 -14 6
-38 16 -55 23 -16 7 -61 25 -100 40 -38 14 -85 33 -103 41 -18 8 -37 14 -42
14 -11 0 -28 -60 -38 -129 -9 -61 -9 -364 0 -421 15 -98 80 -261 138 -346 17
-23 30 -45 30 -48 0 -3 10 -16 23 -29 12 -13 40 -43 62 -67 60 -64 140 -122
235 -171 47 -24 87 -44 90 -44 3 0 40 -17 84 -38 43 -20 89 -40 102 -43 13 -3
28 -12 35 -20 6 -8 20 -14 30 -14 11 0 19 -4 19 -8 0 -5 6 -9 13 -9 6 0 56
-21 110 -47 54 -25 100 -46 102 -46 2 0 34 -14 72 -32 37 -18 70 -33 73 -34 3
-1 15 -5 28 -9 12 -4 22 -11 22 -16 0 -5 6 -9 14 -9 12 0 86 -32 294 -126 29
-13 57 -24 62 -24 6 0 10 -4 10 -8 0 -5 6 -9 13 -9 6 0 37 -12 67 -26 30 -14
102 -46 160 -72 58 -25 123 -55 145 -64 268 -122 368 -160 475 -185 66 -16
315 -19 377 -6 21 5 54 11 74 14 55 8 196 54 267 87 35 16 65 29 67 29 5 0
127 71 140 82 6 4 38 29 73 54 34 25 62 50 62 55 0 5 4 9 9 9 6 0 34 26 63 57
29 31 67 71 85 90 17 18 28 33 25 33 -4 0 0 6 9 13 9 7 46 57 82 112 37 55 73
108 82 118 8 9 12 17 8 17 -3 0 1 8 10 18 10 10 15 21 12 24 -3 3 1 11 10 18
8 7 15 19 15 26 0 8 4 14 10 14 5 0 10 3 9 8 -2 15 14 52 22 52 5 0 9 4 9 9 0
5 20 51 44 102 79 172 94 207 88 213 -3 3 -1 6 5 6 5 0 10 6 10 13 0 6 10 34
22 61 13 27 24 56 26 66 2 10 8 26 14 36 10 19 71 179 76 199 1 6 7 23 13 38
7 16 12 30 12 32 0 2 5 16 12 32 6 15 12 31 13 36 2 4 4 9 5 12 1 3 3 8 5 13
1 4 5 16 9 27 16 42 19 50 22 65 2 8 8 23 13 35 6 11 27 67 46 125 20 58 40
114 45 125 5 11 32 88 60 170 93 270 181 530 184 540 2 6 6 17 9 25 15 39 254
776 293 905 37 119 41 215 12 267 -22 38 -75 72 -128 82 -14 2 -25 5 -25 6 0
5 -458 104 -570 124 -16 2 -77 14 -135 26 -58 12 -118 24 -135 26 -16 3 -37 7
-45 10 -8 3 -28 8 -45 10 -16 3 -73 14 -125 25 -52 11 -107 22 -122 24 -15 2
-36 6 -47 10 -10 3 -32 7 -47 10 -16 2 -54 9 -84 15 -30 6 -66 13 -80 16 -14
3 -70 14 -125 25 -55 12 -109 23 -120 25 -18 4 -92 18 -155 30 -14 3 -173 34
-355 70 -181 36 -341 67 -355 70 -14 2 -36 7 -50 9 -185 36 -346 65 -359 65
-9 -1 -33 -7 -55 -15z"/>
</g>
</svg>
